<?xml version="1.0" standalone="no"?>
<!DOCTYPE svg PUBLIC "-//W3C//DTD SVG 20010904//EN"
 "http://www.w3.org/TR/2001/REC-SVG-20010904/DTD/svg10.dtd">
<svg version="1.0" xmlns="http://www.w3.org/2000/svg"
 width="500.000000pt" height="500.000000pt" viewBox="0 0 500.000000 500.000000"
 preserveAspectRatio="xMidYMid meet">
<metadata>
Created by potrace 1.14, written by Peter Selinger 2001-2017
</metadata>
<g transform="translate(0.000000,500.000000) scale(0.100000,-0.100000)"
fill="#000000" stroke="none">
<path d="M880 4327 c0 -25 52 -103 85 -127 49 -36 242 -125 368 -170 75 -27
137 -47 137 -45 0 2 -19 14 -42 28 -64 37 -98 73 -98 102 0 14 5 25 10 25 17
0 11 20 -7 27 -80 27 -167 65 -277 119 -140 70 -176 78 -176 41z"/>
<path d="M3965 4297 c-55 -28 -152 -73 -215 -99 -81 -33 -110 -49 -97 -53 44
-18 8 -77 -80 -131 -21 -13 -33 -24 -26 -24 30 -1 252 87 368 146 111 56 136
73 168 115 20 27 37 60 37 74 0 39 -40 32 -155 -28z"/>
<path d="M860 4151 c0 -27 61 -72 161 -121 46 -22 113 -56 149 -74 67 -34 198
-83 260 -97 l35 -8 -26 23 c-15 13 -35 35 -44 50 -17 25 -17 28 -2 43 15 15 6
20 -111 63 -70 26 -148 60 -175 75 -59 33 -160 65 -209 65 -31 0 -38 -4 -38
-19z"/>
<path d="M4000 4151 c-30 -10 -86 -34 -125 -53 -71 -37 -254 -108 -276 -108
-8 0 -6 -7 5 -19 22 -24 8 -56 -41 -93 -20 -16 -31 -28 -24 -28 36 0 241 81
380 150 168 84 221 120 221 151 0 16 -7 19 -42 18 -24 0 -68 -8 -98 -18z"/>
<path d="M1340 4117 c0 -22 22 -43 82 -81 71 -45 157 -83 204 -90 20 -4 71
-18 113 -32 72 -24 221 -45 221 -30 0 15 -29 62 -52 83 -40 38 -168 89 -283
113 -60 12 -133 29 -162 36 -66 18 -123 18 -123 1z"/>
<path d="M3525 4115 c-140 -36 -245 -57 -260 -52 -9 4 -14 3 -11 -1 2 -4 -17
-16 -42 -26 -88 -36 -172 -107 -172 -146 0 -16 146 -8 178 9 11 6 64 22 118
36 147 37 324 136 324 181 0 18 -65 18 -135 -1z"/>
<path d="M1803 4047 c77 -33 119 -63 148 -105 23 -34 24 -43 25 -202 1 -131 5
-172 17 -197 55 -105 183 -178 335 -190 68 -5 72 -4 72 15 0 36 -25 49 -103
55 -139 10 -212 71 -252 210 -20 70 -15 119 21 208 34 84 30 136 -13 165 -40
27 -139 52 -234 59 l-74 6 58 -24z"/>
<path d="M3114 4060 c-69 -10 -147 -37 -178 -61 -34 -27 -34 -79 -1 -162 39
-93 41 -135 15 -216 -41 -129 -116 -189 -249 -198 -85 -6 -101 -14 -101 -50 0
-23 3 -24 53 -22 155 8 296 84 355 193 13 26 16 57 14 183 -3 210 11 239 153
308 l70 35 -40 -1 c-22 -1 -63 -5 -91 -9z"/>
<path d="M930 4001 c-23 -15 6 -58 66 -98 69 -45 404 -145 435 -129 8 4 30 15
49 25 l34 18 -59 17 c-129 35 -203 63 -290 107 -115 58 -202 80 -235 60z"/>
<path d="M3975 4002 c-11 -2 -69 -28 -130 -57 -60 -30 -167 -71 -238 -92 -119
-35 -125 -38 -97 -48 16 -5 37 -17 45 -26 15 -15 22 -14 88 3 318 84 341 93
406 158 42 43 38 65 -14 66 -22 0 -49 -1 -60 -4z"/>
<path d="M1418 3963 c-27 -7 -22 -25 15 -59 51 -49 97 -71 177 -87 137 -28
304 -46 353 -38 4 0 7 18 7 40 l0 38 -77 7 c-43 3 -105 15 -138 25 -177 56
-302 84 -337 74z"/>
<path d="M3442 3947 c-37 -10 -110 -31 -162 -47 -99 -30 -149 -39 -212 -40
-37 0 -38 -1 -38 -39 0 -22 5 -41 13 -44 15 -5 223 17 334 36 85 15 135 39
191 91 38 35 41 54 10 61 -32 7 -58 4 -136 -18z"/>
<path d="M998 3824 c-34 -18 -35 -29 -3 -50 54 -35 176 -64 299 -69 67 -3 140
-8 164 -10 102 -11 10 43 -138 80 -63 15 -139 37 -169 47 -65 22 -116 22 -153
2z"/>
<path d="M3858 3825 c-21 -7 -95 -28 -165 -46 -106 -27 -203 -67 -203 -83 0
-4 116 0 250 9 98 7 235 45 270 75 21 18 22 22 8 36 -21 21 -115 27 -160 9z"/>
<path d="M1492 3789 c-42 -12 -39 -36 7 -63 64 -37 160 -57 308 -63 156 -7
146 -10 157 58 l6 36 -97 7 c-54 4 -138 14 -188 22 -102 16 -145 16 -193 3z"/>
<path d="M2435 3786 c-41 -19 -75 -52 -91 -92 -18 -43 -18 -76 1 -121 47 -111
188 -138 274 -52 67 67 66 161 -2 227 -54 52 -120 66 -182 38z"/>
<path d="M3305 3785 c-38 -7 -116 -16 -171 -20 l-102 -7 5 -37 c8 -68 -1 -65
157 -58 156 6 255 28 316 69 43 29 43 40 0 55 -44 15 -116 14 -205 -2z"/>
<path d="M1144 3680 c-35 -14 -36 -27 -7 -48 56 -39 129 -53 282 -51 79 0 150
3 156 5 7 3 10 16 7 29 -3 20 1 27 24 36 l29 12 -35 7 c-53 12 -432 20 -456
10z"/>
<path d="M3548 3681 c-91 -3 -170 -9 -174 -13 -4 -4 6 -12 21 -18 22 -8 26
-15 23 -35 -3 -13 0 -26 7 -28 6 -3 75 -6 152 -6 152 -2 231 12 287 52 l29 20
-23 19 c-24 20 -11 19 -322 9z"/>
<path d="M1612 3634 c-30 -21 -17 -37 54 -64 63 -23 192 -27 255 -8 36 10 39
14 39 47 l0 36 -163 2 c-135 3 -166 0 -185 -13z"/>
<path d="M3040 3608 c0 -34 3 -38 38 -47 56 -16 192 -13 244 4 25 9 55 25 67
37 40 37 15 43 -175 43 l-174 0 0 -37z"/>
<path d="M1529 3565 c-3 -2 -69 -5 -146 -6 -106 -1 -145 -4 -153 -14 -48 -58
334 -77 469 -23 26 10 25 11 -24 28 -46 17 -135 26 -146 15z"/>
<path d="M3321 3550 c-40 -15 -43 -18 -25 -27 71 -38 387 -44 453 -9 63 34 27
43 -189 49 -169 4 -201 2 -239 -13z"/>
<path d="M1925 3544 c-22 -7 -68 -13 -102 -13 -34 -1 -74 -6 -88 -13 -70 -32
20 -68 163 -65 109 2 131 10 109 35 -8 10 -21 29 -28 43 -13 24 -16 25 -54 13z"/>
<path d="M3030 3550 c0 -4 -11 -23 -24 -43 l-25 -36 36 -12 c74 -24 258 1 270
37 6 18 -45 34 -106 34 -32 0 -79 6 -104 14 -26 8 -47 11 -47 6z"/>
<path d="M1620 3483 c-36 -7 -105 -12 -153 -13 -65 0 -97 -5 -118 -17 -16 -10
-29 -21 -29 -25 0 -15 42 -25 84 -21 32 3 266 47 298 56 4 1 1 9 -5 17 -10 14
-21 14 -77 3z"/>
<path d="M3301 3478 c-9 -15 -8 -18 6 -18 10 0 68 -11 128 -25 115 -27 220
-34 237 -17 6 6 2 17 -13 31 -20 18 -35 21 -118 21 -53 1 -126 7 -162 14 -61
11 -67 11 -78 -6z"/>
<path d="M2587 3475 c-31 -23 -96 -27 -149 -9 -58 19 -98 12 -98 -16 0 -19 7
-20 160 -20 151 0 160 1 160 19 0 26 -50 43 -73 26z"/>
<path d="M1990 3444 c-25 -7 -67 -13 -95 -13 -57 -2 -109 -31 -89 -51 14 -14
113 -15 157 -2 17 6 53 13 80 17 26 3 47 10 47 14 0 4 -12 16 -27 27 -25 17
-33 18 -73 8z"/>
<path d="M2937 3436 c-15 -12 -27 -25 -27 -28 0 -3 24 -9 53 -13 28 -4 63 -12
77 -17 34 -13 140 -12 154 2 20 20 -32 50 -90 50 -28 0 -71 6 -96 13 -41 13
-46 13 -71 -7z"/>
<path d="M1631 3434 c-82 -15 -164 -51 -169 -76 -5 -25 41 -30 147 -18 160 20
174 23 177 45 2 11 13 28 25 37 l21 18 -33 2 c-19 1 -47 2 -64 3 -16 1 -64 -4
-104 -11z"/>
<path d="M3202 3443 l-22 -4 20 -26 c11 -14 20 -32 20 -39 0 -8 20 -15 58 -19
109 -12 137 -16 155 -21 11 -4 39 -3 64 1 33 5 43 10 41 23 -5 27 -89 62 -184
77 -89 15 -110 16 -152 8z"/>
<path d="M2414 3103 c4 -175 9 -424 12 -554 l6 -237 -42 11 c-32 9 -37 13 -23
18 17 7 16 8 -2 9 -11 2 -24 2 -28 1 -4 -1 -16 3 -27 9 -25 13 -50 3 -43 -18
5 -12 2 -14 -11 -9 -10 4 -21 7 -24 7 -4 0 0 5 8 10 13 9 13 11 0 19 -8 5 -21
6 -29 1 -8 -4 -22 -3 -33 3 -14 9 -21 8 -35 -6 -16 -16 -15 -17 25 -15 23 1
45 -2 50 -7 4 -4 -42 -5 -101 -2 -107 7 -192 23 -259 52 -37 15 -89 68 -87 88
0 9 2 9 5 1 3 -7 13 -11 22 -9 9 1 11 0 5 -2 -10 -3 -10 -10 -2 -25 6 -11 17
-17 25 -14 8 3 12 2 9 -4 -3 -5 4 -14 15 -20 16 -9 24 -7 41 9 22 21 14 33
-19 26 -15 -2 -19 0 -15 11 3 8 -1 14 -11 14 -9 0 -16 7 -16 15 0 8 -5 15 -10
15 -6 0 -9 19 -8 43 2 32 7 44 18 43 10 -1 15 8 15 28 0 34 -20 46 -30 17 -3
-10 -12 -22 -21 -25 -22 -8 0 27 32 53 33 26 130 31 120 6 -3 -9 0 -15 10 -15
9 0 12 5 8 12 -4 7 10 2 32 -11 29 -18 52 -23 91 -22 52 1 198 43 188 53 -3 3
8 4 25 2 19 -2 29 0 25 6 -3 6 -1 10 4 10 6 0 11 9 11 20 0 13 -7 20 -20 20
-11 0 -22 0 -25 1 -68 14 -91 23 -101 37 -12 18 -55 26 -145 27 -39 0 -51 -5
-75 -31 -21 -22 -45 -35 -83 -43 -65 -14 -89 -26 -119 -60 -126 -140 -37 -323
194 -400 66 -22 177 -36 291 -36 40 0 73 -1 73 -2 0 -1 -13 -14 -29 -30 -71
-71 -86 -183 -39 -283 27 -59 92 -140 111 -140 7 0 21 -7 32 -16 18 -14 18
-14 -10 -9 -36 7 -68 -10 -47 -24 11 -6 10 -10 -3 -15 -9 -3 -21 -4 -25 -1 -5
3 -12 0 -16 -6 -5 -8 -2 -10 7 -5 8 4 5 0 -6 -8 -45 -37 -77 -70 -93 -100 -24
-44 -23 -160 2 -206 24 -45 132 -153 148 -148 7 3 20 -2 30 -11 16 -14 15 -16
-20 -38 -40 -24 -57 -29 -47 -13 8 13 -8 13 -40 -2 -25 -11 -34 -28 -15 -28 6
0 -5 -16 -24 -35 -67 -67 -73 -181 -16 -323 21 -52 37 -79 43 -73 5 5 12 65
17 133 12 209 44 251 240 328 30 12 49 16 43 9 -16 -16 -17 -39 -1 -39 23 0
90 -54 118 -94 34 -50 46 -107 49 -221 1 -48 6 -96 10 -108 7 -19 11 -16 31
28 69 154 68 287 -3 362 -20 22 -26 33 -16 33 9 1 6 7 -10 20 -13 11 -31 20
-40 20 -12 0 -10 -5 9 -20 14 -11 22 -20 18 -20 -8 0 -76 36 -93 50 -5 4 -19
10 -30 12 -17 3 -15 7 13 22 45 24 118 99 143 147 26 53 34 123 19 179 -9 33
-27 60 -70 102 -32 31 -60 55 -62 52 -3 -2 -17 0 -30 5 -14 5 -29 6 -34 2 -5
-4 25 27 67 69 116 114 153 224 114 339 -16 49 -53 89 -72 78 -4 -3 -14 1 -21
9 -11 12 -5 14 35 15 253 4 412 52 506 153 38 42 70 123 62 161 -2 11 -4 27
-4 36 -1 25 -55 98 -87 120 -16 10 -53 24 -83 30 -38 8 -64 21 -88 44 -33 32
-37 33 -96 29 -85 -5 -110 -11 -119 -28 -4 -8 -39 -20 -78 -27 -48 -8 -70 -17
-70 -26 0 -19 21 -39 40 -38 8 0 17 -2 20 -5 3 -3 37 -15 76 -28 92 -29 161
-29 210 0 21 12 34 17 30 10 -4 -7 -1 -12 8 -12 10 0 13 6 10 15 -4 9 0 15 10
15 10 0 13 -6 10 -15 -5 -13 -1 -16 22 -15 3 1 14 -9 24 -22 l19 -23 1 23 c0
12 0 25 0 30 -1 4 -10 7 -20 6 -11 0 -20 4 -20 9 0 14 61 -1 83 -21 27 -24 42
-53 24 -46 -18 7 -27 -27 -20 -72 4 -23 2 -34 -7 -34 -7 0 -10 -7 -6 -17 4
-10 4 -14 0 -11 -4 4 -16 2 -27 -3 -16 -9 -17 -13 -6 -21 11 -8 10 -9 -3 -4
-10 3 -25 3 -34 -1 -13 -5 -12 -8 5 -24 21 -20 51 -16 51 7 0 7 6 11 13 8 8
-3 20 2 27 11 12 14 11 18 -1 27 -11 8 -11 9 3 5 9 -3 19 -1 22 6 3 9 5 9 5 0
2 -24 -51 -71 -101 -91 -103 -41 -201 -56 -195 -30 3 14 -41 38 -59 31 -23 -8
7 -44 31 -37 16 4 17 3 5 -5 -8 -6 -42 -10 -75 -10 -41 0 -54 3 -40 9 19 7 19
8 -5 18 -30 12 -45 5 -30 -13 14 -17 -19 -31 -34 -14 -8 9 -8 10 2 5 6 -4 12
-3 12 2 0 10 -23 22 -41 22 -14 0 -11 -28 4 -33 6 -3 2 -6 -11 -6 -13 -1 -20
3 -17 9 4 6 -7 10 -25 10 -18 0 -29 -4 -25 -10 7 -11 0 -12 -33 -3 l-24 6 6
226 c3 124 8 367 12 539 l6 312 -92 0 -93 0 7 -317z m403 -362 c0 -11 -5 -17
-9 -15 -11 7 -10 34 1 34 6 0 9 -9 8 -19z m-1027 -184 c0 -5 -4 -5 -10 -2 -5
3 -10 -3 -10 -14 0 -10 5 -21 12 -23 7 -3 6 -7 -5 -11 -18 -7 -22 17 -10 61 4
18 8 20 14 10 5 -7 9 -17 9 -21z m1449 -31 c1 -45 -11 -23 -14 26 -2 30 0 37
5 23 5 -11 9 -33 9 -49z m-909 -186 c10 -6 5 -9 -18 -8 -22 1 -29 4 -20 9 16
11 20 11 38 -1z m283 -230 c9 -11 17 -27 17 -35 0 -8 4 -15 8 -15 23 0 -18
-117 -45 -127 -7 -3 -13 -11 -13 -19 0 -8 -4 -14 -10 -14 -6 0 -8 35 -6 93 2
50 5 102 5 115 1 27 21 28 44 2z m-71 -222 c-10 -10 -7 -15 10 -26 15 -9 17
-11 5 -8 -10 3 -28 6 -39 6 -19 0 -19 1 3 20 27 21 40 27 21 8z m-4 -74 c1 0
-5 -7 -15 -15 -12 -10 -14 -10 -9 -1 5 8 -3 17 -25 26 -20 8 -27 15 -18 18 8
3 25 -2 39 -11 14 -8 26 -16 28 -17z m-94 5 c-3 -5 5 -18 18 -29 13 -11 17
-19 11 -20 -7 0 -13 5 -13 10 0 6 -7 10 -15 10 -9 0 -15 10 -15 26 0 14 4 23
10 19 6 -4 8 -11 4 -16z m162 -200 c45 -27 84 -69 84 -89 0 -13 -1 -13 -10 0
-7 12 -11 10 -18 -10 -5 -14 -6 -26 -1 -28 5 -2 4 -13 -2 -24 -10 -19 -9 -20
10 -15 24 6 26 -1 9 -38 -7 -15 -19 -25 -33 -25 -26 0 -68 -53 -54 -67 7 -7 2
-9 -16 -5 l-26 5 5 166 c5 184 7 206 13 174 2 -12 20 -32 39 -44z m-171 21
c-3 -5 -3 -10 2 -10 4 0 9 -80 10 -178 1 -97 0 -171 -3 -164 -3 6 -11 12 -18
12 -14 0 -99 86 -115 117 -16 32 -15 48 4 33 21 -17 32 -4 17 20 -9 14 -9 20
-1 20 6 0 9 6 6 14 -3 7 -1 18 5 24 7 7 7 16 0 28 -9 15 -11 14 -25 -12 -18
-33 -23 -27 -6 8 5 13 33 40 61 61 49 36 76 47 63 27z m262 -152 c2 -18 0 -20
-7 -8 -12 18 -13 30 -2 30 4 0 9 -10 9 -22z"/>
<path d="M2580 1611 c0 -6 5 -13 10 -16 6 -3 10 1 10 9 0 9 -4 16 -10 16 -5 0
-10 -4 -10 -9z"/>
<path d="M2610 1587 c0 -19 16 -31 24 -18 3 5 -1 14 -9 21 -12 10 -15 10 -15
-3z"/>
<path d="M2644 1556 c-8 -22 3 -33 18 -18 9 9 9 15 0 24 -9 9 -13 7 -18 -6z"/>
<path d="M2647 1425 c-9 -23 11 -28 23 -5 8 16 8 20 -4 20 -7 0 -16 -7 -19
-15z"/>
<path d="M2387 1613 c-10 -9 -9 -23 2 -23 5 0 11 7 15 15 5 15 -5 20 -17 8z"/>
<path d="M2355 1587 c-4 -10 -5 -21 -1 -24 10 -10 18 4 13 24 -4 17 -4 17 -12
0z"/>
<path d="M2321 1419 c11 -22 29 -25 29 -5 0 7 -9 16 -20 19 -17 4 -18 2 -9
-14z"/>
<path d="M2350 1375 c7 -8 19 -15 27 -15 13 0 13 3 3 15 -7 8 -19 15 -27 15
-13 0 -13 -3 -3 -15z"/>
<path d="M2385 1340 c3 -5 13 -10 21 -10 8 0 12 5 9 10 -3 6 -13 10 -21 10 -8
0 -12 -4 -9 -10z"/>
<path d="M2090 3390 c-14 -4 -44 -13 -67 -20 -23 -7 -52 -23 -64 -36 l-21 -22
22 -12 c47 -25 204 15 217 56 3 8 -23 27 -57 40 -3 1 -16 -1 -30 -6z"/>
<path d="M2851 3381 c-39 -18 -36 -30 15 -58 46 -26 132 -37 170 -23 22 9 24
13 13 26 -18 21 -63 44 -119 58 -39 10 -52 10 -79 -3z"/>
<path d="M1785 3350 c-26 -10 -89 -19 -138 -20 -27 0 -45 -7 -63 -25 -52 -52
-2 -59 119 -16 118 42 140 53 125 63 -15 9 -17 9 -43 -2z"/>
<path d="M1900 3351 c-19 -4 -57 -19 -85 -33 -27 -14 -66 -31 -87 -37 -20 -7
-49 -24 -65 -39 l-28 -26 30 -6 c17 -4 48 -1 70 5 45 13 215 120 215 135 0 11
1 11 -50 1z"/>
<path d="M2187 3346 c-3 -8 -27 -27 -54 -42 -62 -35 -83 -54 -83 -72 0 -11 10
-13 50 -9 39 4 65 16 115 51 35 26 66 50 69 55 3 5 -14 14 -39 20 -55 14 -52
14 -58 -3z"/>
<path d="M2745 3346 l-40 -12 60 -43 c33 -24 65 -48 71 -52 16 -13 103 -19
110 -8 9 15 -15 38 -68 65 -26 13 -54 33 -60 44 -14 23 -18 23 -73 6z"/>
<path d="M3056 3341 c10 -10 59 -44 108 -75 68 -43 99 -56 128 -56 21 0 41 0
46 0 21 0 2 35 -28 51 -69 37 -196 87 -234 92 -39 6 -39 6 -20 -12z"/>
<path d="M3172 3352 c-15 -10 7 -21 125 -63 121 -43 171 -36 119 16 -18 18
-36 25 -64 25 -39 0 -123 13 -152 24 -8 3 -21 2 -28 -2z"/>
<path d="M2291 3316 c-12 -13 -51 -43 -86 -67 -60 -41 -82 -65 -71 -77 3 -2
23 -4 46 -4 34 1 50 9 100 53 54 47 97 97 88 103 -2 2 -15 6 -29 9 -19 5 -31
1 -48 -17z"/>
<path d="M2653 3333 c-13 -2 -23 -9 -23 -15 0 -6 30 -39 67 -74 66 -64 107
-84 150 -76 40 8 30 22 -57 84 -36 25 -75 56 -87 67 -12 12 -23 20 -25 20 -2
-1 -13 -4 -25 -6z"/>
<path d="M2390 3319 c0 -16 -172 -182 -190 -184 -15 -1 -119 -73 -148 -102
-11 -11 -11 -13 2 -13 30 0 62 19 107 62 36 35 48 42 57 32 9 -10 20 -10 54
-1 36 11 48 22 80 73 33 53 61 144 44 144 -3 0 -6 -5 -6 -11z"/>
<path d="M2604 3293 c8 -55 67 -156 101 -171 32 -15 85 -16 85 -1 0 5 -34 43
-76 82 -42 40 -85 86 -96 102 l-20 30 6 -42z"/>
<path d="M1833 3247 c-87 -55 -114 -84 -93 -97 21 -13 70 7 113 47 23 21 55
48 71 59 28 20 29 44 3 44 -7 0 -49 -24 -94 -53z"/>
<path d="M3054 3289 c-3 -6 6 -20 22 -32 15 -12 47 -39 71 -60 61 -56 144 -70
112 -20 -12 19 -170 123 -187 123 -6 0 -14 -5 -18 -11z"/>
<path d="M1923 3236 c-68 -50 -103 -90 -103 -118 0 -34 45 -13 103 46 28 30
66 61 83 69 17 9 36 23 43 31 12 14 9 16 -26 16 -30 0 -52 -10 -100 -44z"/>
<path d="M2957 3261 c10 -10 32 -26 49 -34 18 -9 51 -38 74 -64 44 -51 82 -69
99 -49 12 15 -35 69 -111 129 -36 29 -55 37 -88 37 -40 0 -40 -1 -23 -19z"/>
<path d="M1972 3191 c-52 -41 -98 -104 -88 -120 11 -17 64 6 101 43 20 20 55
49 77 64 l41 27 -30 6 c-16 3 -35 9 -40 12 -6 4 -33 -11 -61 -32z"/>
<path d="M2967 3224 c-3 -4 -20 -9 -38 -13 l-32 -6 44 -29 c24 -16 61 -47 82
-68 27 -27 46 -38 67 -38 17 0 30 4 30 8 0 35 -135 163 -153 146z"/>
<path d="M2052 3151 c-35 -28 -75 -65 -88 -83 l-25 -33 30 -3 c34 -4 50 4 146
68 l67 44 -30 8 c-19 5 -32 16 -34 28 -3 17 -11 14 -66 -29z"/>
<path d="M2882 3189 c8 -22 -10 -39 -41 -40 -24 0 -25 -1 -7 -12 10 -7 46 -32
79 -56 64 -46 137 -67 137 -39 0 15 -74 90 -134 134 -27 19 -38 24 -34 13z"/>
<path d="M2326 3122 c-29 -42 -37 -77 -11 -52 14 15 49 90 41 90 -2 0 -15 -17
-30 -38z"/>
<path d="M2655 3123 c18 -43 32 -60 41 -50 6 6 -43 87 -52 87 -3 0 3 -17 11
-37z"/>
<path d="M2800 3129 c0 -14 90 -99 104 -99 6 0 22 -3 36 -6 l25 -6 -25 21
c-54 45 -140 100 -140 90z"/>
<path d="M2158 3056 c-47 -49 -48 -66 -7 -66 23 0 43 12 80 48 27 26 49 49 49
52 0 3 -19 5 -43 5 -36 0 -47 -6 -79 -39z"/>
<path d="M2752 3057 c39 -49 66 -67 100 -67 38 0 35 17 -10 65 -32 34 -44 40
-79 40 l-41 0 30 -38z"/>
<path d="M2253 3040 c-23 -28 -31 -70 -14 -70 5 0 23 17 40 37 23 28 28 40 19
50 -15 18 -20 16 -45 -17z"/>
<path d="M2702 3057 c-9 -10 -4 -22 19 -50 17 -20 35 -37 40 -37 18 0 8 45
-16 73 -28 31 -29 31 -43 14z"/>
<path d="M1856 2662 c-3 -5 -2 -18 1 -30 4 -18 8 -20 19 -11 18 15 18 49 0 49
-8 0 -17 -4 -20 -8z"/>
<path d="M1900 2655 c0 -9 6 -12 15 -9 8 4 15 10 15 15 0 5 -7 9 -15 9 -8 0
-15 -7 -15 -15z"/>
<path d="M3155 2639 c-9 -13 3 -59 14 -59 11 0 24 48 16 60 -8 13 -22 13 -30
-1z"/>
<path d="M1908 2419 c-25 -14 -22 -29 5 -29 23 0 47 17 47 32 0 11 -31 9 -52
-3z"/>
<path d="M3040 2422 c0 -15 35 -37 53 -34 23 5 22 19 -2 32 -23 12 -51 13 -51
2z"/>
<path d="M1974 2409 c-12 -4 -25 -12 -28 -17 -9 -15 23 -23 46 -11 12 6 18 7
14 1 -3 -5 1 -13 10 -16 24 -9 28 -8 43 15 12 20 11 21 -13 17 -14 -3 -26 -2
-26 2 0 13 -24 18 -46 9z"/>
<path d="M2997 2411 c-16 -6 -16 -8 4 -25 16 -13 27 -15 42 -9 19 9 19 9 -4
25 -13 8 -32 12 -42 9z"/>
<path d="M2094 2389 c-31 -11 -37 -26 -13 -32 20 -5 59 11 59 24 0 12 -25 16
-46 8z"/>
<path d="M2942 2380 c13 -21 43 -27 53 -11 6 11 -26 31 -49 31 -14 0 -14 -3
-4 -20z"/>
<path d="M2816 2365 c4 -8 17 -15 31 -15 22 0 24 2 13 15 -7 8 -21 15 -31 15
-12 0 -16 -5 -13 -15z"/>
<path d="M2330 1219 c-22 -9 -23 -11 -8 -20 19 -10 71 8 62 22 -7 11 -22 10
-54 -2z"/>
<path d="M2650 1220 c-9 -6 -7 -11 9 -20 24 -12 56 -6 47 9 -8 13 -42 20 -56
11z"/>
<path d="M2490 1152 l-35 -17 3 -235 c2 -129 6 -238 8 -242 3 -5 20 -8 38 -8
l33 0 2 163 c2 89 4 206 6 260 4 107 4 108 -55 79z"/>
</g>
</svg>
